<?xml version="1.0" ?>
<!-- Uploaded to: SVG Repo, www.svgrepo.com, Generator: SVG Repo Mixer Tools -->
<svg width="800px" height="800px" viewBox="0 0 25 25" xmlns="http://www.w3.org/2000/svg">
<defs>
<style>.cls-1{fill:#ff7900;}</style>
</defs>
<g data-name="clock 2" id="clock_2">
<path class="cls-1" d="M22.08,1H2.92A1.92,1.92,0,0,0,1,2.92V22.08A1.92,1.92,0,0,0,2.92,24H22.08A1.92,1.92,0,0,0,24,22.08V2.92A1.92,1.92,0,0,0,22.08,1ZM23,22.08a.92.92,0,0,1-.92.92H2.92A.92.92,0,0,1,2,22.08V2.92A.92.92,0,0,1,2.92,2H22.08a.92.92,0,0,1,.92.92Z"/>
<path class="cls-1" d="M13,12.33V5.5a.5.5,0,0,0-1,0v7a.51.51,0,0,0,.15.36l5.09,5a.52.52,0,0,0,.35.14.5.5,0,0,0,.35-.86Z"/>
</g>
</svg>